HIERARCHY
ROOT Hips
{
   OFFSET 0.00000 0.00000 0.00000
   CHANNELS 6 Xposition Yposition Zposition Zrotation Xrotation Yrotation
   JOINT RightUpLeg
   {
      OFFSET -7.156640 -6.933656 0.081322
      CHANNELS 3 Zrotation Xrotation Yrotation
      JOINT RightLeg
      {
         OFFSET 0.000000 -35.538158 1.098160
         CHANNELS 3 Zrotation Xrotation Yrotation
         JOINT RightFoot
         {
            OFFSET 0.202839 -33.673920 -1.168472
            CHANNELS 3 Zrotation Xrotation Yrotation
            JOINT RightToes
            {
               OFFSET 0.032000 -3.532072 6.799280
               CHANNELS 3 Zrotation Xrotation Yrotation
               End Site
               {
                  OFFSET -0.064000 -0.109958 7.823832
               }
            }
         }
      }
   }
   JOINT Spine
   {
      OFFSET 0.000000 9.512400 0.000000
      CHANNELS 3 Zrotation Xrotation Yrotation
      JOINT Spine1
      {
         OFFSET 0.000000 20.525920 0.102130
         CHANNELS 3 Zrotation Xrotation Yrotation
         JOINT HEad
         {
            OFFSET 0.000000 6.987328 0.009073
            CHANNELS 3 Zrotation Xrotation Yrotation
            End Site
            {
               OFFSET -0.232000 10.219360 2.011160
            }
         }
         JOINT LeftShoulder1
         {
            OFFSET 7.192000 -0.289802 -0.176000
            CHANNELS 3 Zrotation Xrotation Yrotation
            JOINT LeftArm
            {
               OFFSET 8.226160 -0.002704 0.257698
               CHANNELS 3 Zrotation Xrotation Yrotation
               JOINT LeftForeArm
               {
                  OFFSET 26.213519 0.079315 -1.139472
                  CHANNELS 3 Zrotation Xrotation Yrotation
                  JOINT LeftHand
                  {
                     OFFSET 22.051441 0.068290 0.817728
                     CHANNELS 3 Zrotation Xrotation Yrotation
                     End Site
                     {
                        OFFSET 13.395442 -0.480000 1.202328
                     }
                  }
               }
            }
         }
         JOINT RightShoulder
         {
            OFFSET -7.192000 -0.289802 -0.176000
            CHANNELS 3 Zrotation Xrotation Yrotation
            JOINT RightArm
            {
               OFFSET -8.226160 -0.002704 0.257698
               CHANNELS 3 Zrotation Xrotation Yrotation
               JOINT RightForeArm
               {
                  OFFSET -26.317679 0.079315 -1.139472
                  CHANNELS 3 Zrotation Xrotation Yrotation
                  JOINT RightHand
                  {
                     OFFSET -21.993682 0.068290 0.817728
                     CHANNELS 3 Zrotation Xrotation Yrotation
                     End Site
                     {
                        OFFSET -13.304962 -0.480000 1.202328
                     }
                  }
               }
            }
         }
      }
   }
   JOINT LeftUpLeg
   {
      OFFSET 7.156640 -6.933656 0.081322
      CHANNELS 3 Zrotation Xrotation Yrotation
      JOINT LeftLeg
      {
         OFFSET 0.000000 -35.538158 1.098160
         CHANNELS 3 Zrotation Xrotation Yrotation
         JOINT LeftFoot
         {
            OFFSET -0.202839 -33.673920 -1.168472
            CHANNELS 3 Zrotation Xrotation Yrotation
            JOINT LeftToes
            {
               OFFSET -0.032000 -3.532072 6.799280
               CHANNELS 3 Zrotation Xrotation Yrotation
               End Site
               {
                  OFFSET 0.064000 -0.037958 7.823832
               }
            }
         }
      }
   }
}
MOTION
Frames: 7
Frame Time: 0.016667
-141.223018 59.218549 313.798003 -14.371314 -32.543317 -41.741376 -38.973005 31.026179 0.476049 -185.693924 132.693691 108.320639 2.796408 91.004682 10.786308 -30.253507 -30.733833 31.721328 -3.030049 27.161917 -48.120124 -5.512232 1.494635 33.782307 -35.657494 -17.030595 32.090349 -140.166943 -67.952288 -127.024935 -191.876078 -193.336113 -152.082549 -43.317401 56.126461 -81.612995 25.170159 5.786249 -29.558279 3.078378 281.790874 -28.199807 86.192029 17.420305 340.064054 -0.448222 80.131574 67.768666 -38.034076 17.182973 43.968267 32.377897 -15.894402 -123.911858 -11.889482 -39.198626 65.516978 -32.537809 17.215301 64.665369 -19.298590 -24.825072 -0.652285
-141.692169 60.515956 313.302589 -12.137367 -32.177072 -40.578772 -38.021416 31.053636 -0.892959 -185.723184 133.940843 104.281272 3.058119 89.447283 11.115744 -30.577896 -30.281528 32.015996 -3.930169 26.140167 -48.281180 -6.056498 2.048193 33.906500 -35.885083 -15.609965 32.106599 -139.329985 -66.792065 -127.738772 -191.150125 -192.327089 -150.292261 -41.712488 56.052910 -80.408846 24.943019 6.079275 -27.753121 3.536185 280.816643 -28.628161 86.841552 19.028789 339.600229 -1.095550 79.599619 66.893384 -38.384663 17.500738 42.997543 31.060726 -16.279025 -119.860927 -15.339956 -41.168101 64.279634 -32.470566 18.025472 61.905256 -19.117346 -23.840955 -1.260459
-142.094629 61.733326 312.875781 -9.954114 -31.677492 -40.983003 -36.561108 29.906052 -1.699020 -186.630152 135.345335 100.353852 2.905350 86.756544 11.905103 -31.153114 -29.573271 32.534240 -5.181370 24.190414 -47.982110 -6.616661 2.876529 33.895084 -35.826255 -13.385134 31.658357 -139.523799 -65.025559 -128.828036 -191.728847 -189.918751 -147.841876 -40.584281 55.111256 -79.999267 24.786721 6.395218 -26.691012 4.497193 278.886596 -29.563183 87.286614 20.114584 337.724058 -1.445594 78.548787 66.199607 -38.858049 17.677001 42.317841 28.275282 -15.697549 -116.579253 -18.820786 -42.016267 63.111809 -29.579312 18.317717 59.868070 -19.229713 -23.137544 -1.234485
-142.398517 63.006457 312.258678 -8.326016 -31.118864 -41.193267 -36.092413 28.478674 -3.370115 -187.027696 136.573116 97.364968 2.033549 84.605915 12.882075 -32.469193 -28.125107 33.731098 -6.620360 23.065248 -46.565907 -7.007241 4.240882 34.665283 -35.440636 -9.862501 30.719800 -139.435839 -61.815944 -131.022727 -193.084393 -187.770274 -145.731594 -38.152692 55.983000 -78.193672 24.627077 6.806627 -25.928003 5.887372 273.125413 -30.634201 87.044709 20.733756 336.535414 -3.704808 76.485169 63.298546 -39.094032 17.815693 42.250338 26.784498 -13.930293 -113.954644 -17.396869 -41.391322 57.803891 -28.677447 18.020506 60.700451 -19.975819 -23.192442 0.553807
-142.588213 64.246863 311.547523 -7.740653 -31.367664 -42.070745 -36.682446 27.313646 -5.266598 -187.911973 137.219388 95.493121 0.527804 82.780383 13.938045 -34.197996 -26.217910 35.300890 -7.479729 22.601514 -43.617346 -9.499890 7.193205 35.875330 -34.983894 -6.486042 28.252263 -138.753053 -59.941392 -132.943116 -193.487375 -184.550414 -145.272509 -36.591530 57.254607 -77.597513 25.219085 6.802282 -26.198067 5.902905 268.260078 -29.547409 87.402468 22.119988 335.283003 -3.758025 74.866844 63.007805 -39.713708 17.651299 42.172532 24.754388 -11.952596 -111.159307 -15.903908 -40.250711 54.136335 -26.435352 18.200518 64.520993 -21.267624 -23.368654 3.940168
-142.726686 65.596646 310.755725 -9.011926 -31.676867 -44.890045 -37.615614 25.632641 -7.219000 -188.815512 136.899544 95.118123 -1.771925 81.576439 14.999094 -36.249743 -24.049202 37.268914 -9.060884 21.877895 -40.525763 -12.558953 11.419783 36.718762 -33.889783 -2.867635 24.315636 -138.469887 -59.757878 -134.549399 -193.820333 -180.313005 -146.249923 -36.435777 57.950501 -78.791525 26.689632 6.256575 -27.335385 6.469850 263.254533 -27.399295 88.359596 23.566289 333.471173 -3.863441 72.957260 62.556965 -40.508882 17.480679 41.739460 22.256458 -9.815093 -110.792341 -14.357071 -37.553927 52.949587 -25.579210 19.215854 69.072979 -22.654609 -22.940626 7.682443
-142.721412 66.827668 309.901710 -8.553393 -31.799991 -46.219173 -38.795150 22.651260 -8.670463 -190.842165 135.312304 95.871267 -2.792928 81.024239 16.643624 -38.701993 -21.181117 39.566897 -9.579602 21.743094 -37.076480 -14.510313 14.998947 38.213310 -32.342209 -2.545683 20.781465 -138.214137 -58.376951 -136.576271 -195.545201 -176.726172 -145.870902 -33.636995 59.542864 -76.741840 28.051739 6.196134 -26.804440 8.243252 257.509442 -24.474076 88.751164 25.254814 331.196529 -3.874464 70.812328 62.070942 -40.663248 17.619380 41.166336 18.990156 -8.999315 -112.508597 -11.954704 -35.050519 53.271050 -25.313762 20.488349 72.834836 -23.666554 -22.221150 10.664899
